<svg width="1280" height="720" viewBox="0 0 1280 720" fill="none" xmlns="http://www.w3.org/2000/svg">
<rect width="1280" height="1267" fill="white"/>
<path fill-rule="evenodd" clip-rule="evenodd" d="M769.276 20.6611L766.362 1.71704L769.327 1.26086L772.245 20.2334L772.248 20.2475L772.25 20.2617C773.737 31.338 772.788 47.9427 764.991 61.7468C757.121 75.6789 742.37 86.5732 716.741 86.1758C666.773 85.4011 642.473 83.9193 636.414 83.2572H624.12L618.256 85.4562L620.345 89.0372L743.598 92.4206L743.634 92.4234C752.334 93.0862 765.192 96.2084 775.531 103.493C785.903 110.801 793.751 122.328 792.222 139.568C793.853 147.956 792.604 160.305 783.609 170.451C774.52 180.706 757.769 188.435 728.91 187.849H703.384C702.66 188.098 701.906 188.448 701.279 188.876C700.57 189.359 700.158 189.847 699.998 190.271C699.873 190.603 699.835 191.061 700.292 191.774C700.757 192.499 701.713 193.437 703.495 194.539L734.227 191.658L734.317 191.66C743.679 191.909 757.239 194.806 767.422 202.817C772.536 206.841 776.809 212.166 779.234 219.084C781.649 225.973 782.197 234.346 780.038 244.439C779.597 252.298 776.67 264.121 769.293 274.377C761.839 284.739 749.857 293.47 731.472 294.869C695.759 297.586 672.874 298.917 665.812 299.247L642.382 302.176L594.119 299.251C587.546 299.18 578.164 301.124 571.264 307.05C564.466 312.89 559.829 322.811 563.051 339.301C569.583 372.73 587.047 381.098 594.233 381.386L594.288 381.388L654.15 388.202C661.031 388.719 670.683 392.047 677.376 400.409C684.125 408.843 687.652 422.126 682.71 442.099C681.316 448.073 681.196 457.669 685.413 466.87C689.6 476.008 698.118 484.883 714.253 489.438L714.301 489.452L714.349 489.469C726.972 493.965 751.13 516.926 752.316 572.538L759.61 669.792L756.619 670.017L749.319 572.682L749.318 572.641C748.16 517.831 724.457 496.29 713.388 492.311C696.475 487.523 687.25 478.082 682.685 468.12C678.147 458.215 678.268 447.92 679.791 441.407L679.793 441.397L679.796 441.388C684.58 422.059 681.053 409.805 675.033 402.284C668.966 394.702 660.15 391.654 653.898 391.191L653.869 391.189L594.056 384.381C585.006 383.981 566.793 374.093 560.107 339.876C556.713 322.508 561.562 311.429 569.31 304.774C576.943 298.217 587.144 296.168 594.191 296.252L594.227 296.252L642.286 299.165L665.556 296.256L665.615 296.253C672.567 295.93 695.448 294.601 731.245 291.878C748.665 290.552 759.871 282.338 766.857 272.625C773.883 262.858 776.656 251.545 777.049 244.16L777.055 244.04L777.08 243.923C779.173 234.22 778.613 226.383 776.403 220.076C774.193 213.771 770.299 208.898 765.567 205.175C756.087 197.717 743.285 194.916 734.327 194.662L702.799 197.617L702.38 197.37C700.147 196.05 698.627 194.736 697.766 193.393C696.864 191.985 696.691 190.54 697.191 189.214C697.655 187.979 698.625 187.054 699.589 186.397C700.572 185.727 701.692 185.237 702.688 184.92L702.91 184.849H728.941L728.957 184.849C757.298 185.428 773.056 177.834 781.364 168.461C789.692 159.067 790.786 147.607 789.238 139.945L789.194 139.728L789.215 139.509C790.713 123.4 783.502 112.779 773.803 105.945C764.04 99.0665 751.769 96.0578 743.442 95.4175L618.594 91.9903L613.872 83.8959L623.576 80.2572H636.579L636.662 80.2664C642.42 80.9061 666.58 82.3978 716.788 83.1762C741.363 83.5572 755.071 73.2088 762.379 60.2713C769.756 47.2116 770.706 31.3281 769.278 20.6753C769.278 20.6706 769.277 20.6659 769.276 20.6611ZM715.34 24.6158L718.194 1.30664L721.172 1.67126L718.189 26.0367L703.899 39.8152L669.196 48.7391L565.982 37.0545L546.664 39.8815L524.634 59.038L512.245 70.4357L454.989 88.8743L448.758 97.3308V107.95L455.088 115.185L461.975 120.235L485.339 124.526H576.714L623.956 127.936L708.533 132.31H715.345V140.744L703.479 144.52L669.196 149.418H633.513L576.596 144.553H518.431L479.911 152.257L462.457 162.635L455.507 174.218L453.15 189.772L455.508 208.162L462.384 217.788L479.818 227.212L502.26 229.6L576.642 224.738L693.339 229.621L699.778 233.133V239.51L693.681 245.607L678.152 249.114L657.556 253.037H589.927L554.691 259.312L532.743 267.9L519.711 280.932L517.359 300.686L519.776 325.341L522.702 356.545V394.398C525.428 406.716 539.9 431.276 576.629 430.519C595.511 430.13 607.891 430.048 615.698 430.105C619.6 430.134 622.369 430.197 624.239 430.274C625.174 430.312 625.895 430.354 626.426 430.399C626.905 430.439 627.359 430.489 627.665 430.576L627.71 430.589L627.753 430.604C633.31 432.571 640.828 437.479 645.505 445.87C650.217 454.325 651.948 466.141 646.172 481.675L646.113 481.834L634.671 499.246L615.248 512.693L590.27 519.549L574.632 525.71L565.268 536.478L555.719 555.576L551.877 576.707L548.485 612.571V669.904H545.485V612.43L548.903 576.296L552.844 554.617L562.755 534.797L572.85 523.188L589.32 516.699L613.961 509.935L632.484 497.112L643.419 480.471C648.858 465.731 647.1 454.895 642.884 447.331C638.639 439.715 631.805 435.241 626.828 433.46L626.827 433.459C626.774 433.451 626.586 433.423 626.177 433.388C625.704 433.349 625.029 433.309 624.116 433.271C622.292 433.196 619.561 433.133 615.676 433.105C607.908 433.048 595.558 433.129 576.691 433.518C538.072 434.314 522.609 408.231 519.735 394.876L519.702 394.72V356.685L516.79 325.627L516.789 325.621L514.342 300.655L516.855 279.545L531.065 265.335L553.873 256.41L589.662 250.037H657.273L677.541 246.176L692.173 242.872L696.778 238.267V234.914L692.515 232.589L576.677 227.742L502.199 232.61L478.912 230.133L460.347 220.097L452.628 209.292L450.121 189.737L452.63 173.183L460.274 160.443L478.819 149.416L518.134 141.553H576.724L633.641 146.418H668.983L702.807 141.586L712.345 138.551V135.31H708.455L623.755 130.929L576.606 127.526H485.066L460.756 123.061L453.048 117.409L445.758 109.077V96.3449L453.148 86.3154L510.699 67.782L522.634 56.8018L545.359 37.0405L565.933 34.0298L668.984 45.6959L702.386 37.1067L715.34 24.6158Z" fill="black"/>
</svg>
