<svg width="1280" height="720" viewBox="0 0 1280 720" fill="none" xmlns="http://www.w3.org/2000/svg">
<g clip-path="url(#clip0_51_606)">
<path fill-rule="evenodd" clip-rule="evenodd" d="M207.27 353.717L224.893 364.731V379.145L253.861 390.359L301.716 404.032L301.166 407.955H214.395L171.428 375.467L189.568 364.129L207.27 353.717ZM191.643 367.55L178.474 375.78L215.737 403.955H286.886L252.587 394.155L220.893 381.886V366.948L207.207 358.394L191.643 367.55Z" fill="#FF0000"/>
<path fill-rule="evenodd" clip-rule="evenodd" d="M454.548 255.236H480.011L491.052 265.273L515.877 274.21L532.423 306.2H352.044L351.777 302.217L402.114 295.441L415.633 284.82L444.56 274.213L454.548 255.236ZM456.963 259.236L447.383 277.438L417.606 288.357L403.728 299.26L381.892 302.2H525.851L513.045 277.441L488.949 268.767L478.465 259.236H456.963Z" fill="#FF0000"/>
<path fill-rule="evenodd" clip-rule="evenodd" d="M135.701 158.373H171.396L183.284 187.104L201.995 192.717L226.861 201.669L242.367 215.237L315.18 226.887L315.448 230.775L257.317 248.509L68.6893 225.676L79.5028 186.747H98.6516L110.393 172.07H126.895L135.701 158.373ZM137.885 162.373L129.079 176.07H112.315L100.574 190.747H82.5432L73.7885 222.264L256.958 244.437L306.013 229.471L240.599 219.005L224.796 205.177L200.741 196.517L180.315 190.389L168.722 162.373H137.885Z" fill="#FF0000"/>
<path fill-rule="evenodd" clip-rule="evenodd" d="M356.441 39.7991L385.531 47.0716L400.037 67.38H426.34L444.93 88.9052H476.076L491.868 102.724L527.273 108.624L544.856 130.115L601.414 137.313L586.789 155.595L384.186 140.842L384.185 140.842L288.38 133.783L308.255 89.8483L333.003 59.1612L356.441 39.7991ZM357.431 44.1697L335.862 61.9873L311.689 91.962L294.384 130.214L384.479 136.853L584.981 151.453L593.838 140.381L542.77 133.882L525.13 112.322L490.089 106.482L474.573 92.9052H443.1L424.51 71.38H397.979L383.132 50.595L357.431 44.1697Z" fill="#FF0000"/>
<path fill-rule="evenodd" clip-rule="evenodd" d="M889.832 278.718H918.366L937.934 297.307H957.94L965.768 312.962H986.239L1012.01 358.056H813.097L759.847 369.889L725.492 355.165L812.125 341.43L845.362 318.947L875.053 313.2L889.832 278.718ZM892.469 282.718L877.895 316.724L846.925 322.718L813.63 345.242L739.802 356.946L760.238 365.704L812.658 354.056H1005.11L983.918 316.962H963.295L955.468 301.307H936.337L916.769 282.718H892.469Z" fill="#FF0000"/>
<path fill-rule="evenodd" clip-rule="evenodd" d="M1064.4 59.5527H1099.58L1176.81 164.218L901.786 172.161L851.704 164.305L851.484 160.401L900.895 146.837L924.591 124.128H953.062L978.501 103.581H1000.85L1019.44 84.0131H1042.88L1064.4 59.5527ZM1066.21 63.5527L1044.69 88.0131H1021.16L1002.57 107.581H979.915L954.476 128.128H926.199L902.931 150.426L861.515 161.795L902.04 168.152L1169.05 160.441L1097.56 63.5527H1066.21Z" fill="#FF0000"/>
<path fill-rule="evenodd" clip-rule="evenodd" d="M418.065 463.594H422.065V522.337H459.199L450.308 713.502L779.562 720.819V522.337H824.009V463.594H828.009V526.337H783.562V724.909L446.121 717.41L455.009 526.337H418.065V463.594Z" fill="#FF0000"/>
</g>
<defs>
<clipPath id="clip0_51_606">
<rect width="1280" height="720" fill="white"/>
</clipPath>
</defs>
</svg>
