<svg width="321" height="108" viewBox="0 0 321 108" fill="none" xmlns="http://www.w3.org/2000/svg">
<path d="M55.8185 95.292L0.580078 101.666V106.623H159.922L319.972 101.666L301.559 71.9219L271.107 41.4699L254.11 13.8507L229.324 1.10332L205.954 10.3097L193.915 32.2635C171.819 23.1987 156.381 45.0108 151.424 57.0499C128.195 38.9204 111.529 59.4106 106.1 71.9219C80.605 59.4578 61.9561 82.3086 55.8185 95.292Z" fill="#FF0000"/>
<path fill-rule="evenodd" clip-rule="evenodd" d="M229.351 0.555145L254.463 13.4698L271.502 41.1579L301.953 71.6093L320.852 102.139L159.929 107.123H0.0800781V101.22L55.4862 94.827C58.6215 88.3004 64.8213 79.4159 73.4217 73.6488C82.0536 67.8608 93.1136 65.2134 105.851 71.2473C108.66 64.9971 114.159 56.9425 121.839 52.5613C125.788 50.3089 130.319 49.0245 135.35 49.4678C140.23 49.8979 145.542 51.951 151.214 56.2578C153.799 50.2327 158.843 42.0532 165.929 36.3531C173.184 30.5174 182.612 27.2633 193.69 31.6339L205.602 9.91078L229.351 0.555145ZM206.305 10.7087L194.138 32.8956L193.725 32.726C182.886 28.2795 173.693 31.3911 166.556 37.1323C159.398 42.8897 154.343 51.2738 151.886 57.2403L151.635 57.8493L151.116 57.4441C145.368 52.9581 140.06 50.8868 135.262 50.4639C130.465 50.0412 126.135 51.2621 122.335 53.4299C114.714 57.7772 109.249 65.9212 106.558 72.1209L106.35 72.6008L105.88 72.371C93.32 66.2306 82.4737 68.7831 73.9787 74.4794C65.4575 80.1933 59.3126 89.0705 56.2706 95.5057L56.1518 95.7569L1.08008 102.111V106.123H159.922L319.091 101.193L301.164 72.2343L270.712 41.7819L253.758 14.2315L229.297 1.6515L206.305 10.7087Z" fill="black"/>
</svg>
