<svg width="1528" height="860" viewBox="0 0 1528 860" fill="none" xmlns="http://www.w3.org/2000/svg">
<rect width="1528" height="860" fill="#F5F5F5"/>
<path fill-rule="evenodd" clip-rule="evenodd" d="M1.57815 57.7103L6.28439 56.9017L21.0663 142.934C29.8979 151.054 57.4783 167.795 100.598 171.478C107.936 172.105 116.409 172.741 125.614 173.373L126.701 173.448L127.357 174.317C144.287 196.753 194.973 242.899 261.666 247.591L263.886 247.747V559.356L526.982 810.123H1504.79V704.167H1374.58V699.392H1504.79V510.519H1398.8V505.744H1504.79V183.372H1509.56V814.898H525.071L259.111 561.402V252.183C192.504 246.582 142.05 201.181 124.208 178.063C115.403 177.454 107.276 176.841 100.191 176.236C55.1618 172.39 26.2502 154.594 17.1895 145.842L16.6275 145.299L1.57815 57.7103ZM693.829 110.069C688.084 127.939 680.965 146.322 673.234 158.488C669.846 163.818 663.617 167.989 655.936 171.311C648.198 174.657 638.676 177.272 628.307 179.308C607.919 183.311 583.934 185.135 563.074 185.728C544.135 208.515 517.978 224.306 493.017 234.809C468.925 244.946 445.781 250.227 430.956 252.095V559.289L526.917 642.431H1224.74V183.372H1229.51V226.709H1331.23V231.484H1229.51V409.683H1345.25V414.458H1229.51V585.033H1341.43V589.808H1229.51V647.207H525.136L426.181 561.469V247.832L428.308 247.599C442.534 246.038 466.319 240.862 491.165 230.408C516.018 219.95 541.748 204.288 560.073 181.861L560.765 181.014L561.859 180.985C582.842 180.428 607.013 178.622 627.387 174.622C637.579 172.621 646.736 170.087 654.041 166.928C661.403 163.744 666.58 160.055 669.204 155.926C676.588 144.306 683.558 126.416 689.283 108.607C694.991 90.8491 699.397 73.3827 701.703 62.7467L706.37 63.7584C704.034 74.5298 699.59 92.1476 693.829 110.069ZM1394.98 177.916H1504.63V182.691H1394.98V177.916ZM1394.98 313.622H1504.63V318.397H1394.98V313.622Z" fill="black"/>
</svg>
