<svg width="1293" height="717" viewBox="0 0 1293 717" fill="none" xmlns="http://www.w3.org/2000/svg">
<path fill-rule="evenodd" clip-rule="evenodd" d="M113.983 0.239868L153.744 7.13729L164.828 15.1421L175.638 26.9546L176.879 36.7814L187.435 34.6703L208.458 39.1565L220.421 46.1936L224.82 52.3512L229.13 65.5459L235.463 63.1708L251.649 60.7958L262.029 62.3792L269.784 66.3395L274.08 69.1524L277.598 72.9349L280.061 79.0045L285.692 90.0881L300.206 86.0777C300.383 86.0777 300.9 86.068 301.621 86.0546C304.452 86.0018 310.413 85.8907 311.113 86.0777C311.509 86.1832 312.735 86.3212 314.114 86.4764C316.037 86.6929 318.258 86.9429 318.942 87.1852C319.952 87.543 321.175 87.7691 322.474 88.0092C324.202 88.3285 326.063 88.6726 327.739 89.3843C327.739 89.3843 330.902 90.7345 335.04 92.727L339.122 97.4481L347.591 105.331L356.915 120.512L377.997 121.278L382.862 122.629L388.538 126.728L407.908 129.881L428.088 130.827L431.106 133.665L427.615 136.413L424.079 137.044L416.106 140.422L375.609 139.747H336.205L302.955 143.111L263.021 137.558L217.107 136.566L128.751 134.88L95.6297 135.674L76.4907 137.756L6.67826 136.665L0.232361 135.574V131.211L4.29829 128.216L28.977 123.161L31.7722 121.513L30.8765 119.041L29.706 112.561L29.7062 97.0975L31.3287 90.0881L36.6025 81.3268L48.1632 70.9997L66.2139 65.5459L68.8498 48.6728L73.1081 40.9158L87.1172 33.0556L95.8249 12.7736L113.983 0.239868ZM118.998 4.93818L99.8576 17.1952L92.0357 38.5162L81.6906 41.7964L75.5087 49.8706L73.1081 63.2435L71.1043 70.9997L55.9743 73.7364L45.0926 79.848L37.9374 88.941L35.0307 97.5122L34.633 108.409L37.9374 124.666L8.67261 131.211L20.0656 132.699L46.5428 133.294L75.0033 131.905L106.637 129.327L228.983 132.397L274.08 133.793L293.233 136.566L351.329 135.467L414.214 135.828L408.538 134.837L390.262 132.352L377.997 125.647L353.357 125.107L343.266 107.088L332.401 97.036C331.302 96.5093 330.595 96.162 330.042 95.8902C328.537 95.1508 328.168 94.9696 324.132 93.2548C322.444 92.5375 320.409 92.1027 318.574 91.7104C317.27 91.4318 316.067 91.1748 315.16 90.8532C314.498 90.6188 313.459 90.5024 312.579 90.4037C312.003 90.3392 311.494 90.2822 311.204 90.2048C310.98 90.1451 310.353 90.1413 309.849 90.1382C309.527 90.1363 309.256 90.1347 309.169 90.1191C308.931 90.0766 307.84 90.1691 307.84 90.1691L302.955 90.0358L298.193 91.1976L283.844 95.9817L269.784 70.9997L260.973 66.8654L251.209 65.5459L235.463 68.1848L226.403 72.9349L222.357 61.3236L219.366 53.3188L213.032 46.8974L199.31 40.9158L186.379 39.1565L174.24 42.0593L171.513 28.6007L162.452 18.1329L151.809 10.304L118.998 4.93818Z" fill="#838383"/>
<path fill-rule="evenodd" clip-rule="evenodd" d="M544.857 286.213L584.618 293.111L595.702 301.115L606.512 312.928L607.753 322.755L618.309 320.644L639.332 325.13L651.295 332.167L655.694 338.324L660.004 351.519L666.337 349.144L682.523 346.769L692.903 348.352L700.658 352.313L704.954 355.126L708.472 358.908L710.935 364.978L716.566 376.061L731.08 372.051C731.257 372.051 731.774 372.041 732.495 372.028C735.326 371.975 741.287 371.864 741.988 372.051C742.383 372.156 743.609 372.294 744.988 372.45C746.911 372.666 749.133 372.916 749.816 373.158C750.826 373.516 752.049 373.742 753.348 373.982C755.076 374.302 756.938 374.646 758.613 375.358C758.613 375.358 761.776 376.708 765.914 378.7L769.996 383.421L778.465 391.305L787.789 406.485L808.871 407.251L813.736 408.602L819.412 412.701L838.782 415.855L858.962 416.801L861.981 419.639L858.489 422.386L854.953 423.017L846.98 426.396L806.484 425.72H767.079L733.829 429.084L693.895 423.531L647.981 422.539L559.625 420.854L526.504 421.647L507.365 423.729L437.552 422.639L431.106 421.548V417.184L435.172 414.189L459.851 409.134L462.646 407.486L461.751 405.014L460.58 398.534L460.58 383.071L462.203 376.061L467.477 367.3L479.037 356.973L497.088 351.519L499.724 334.646L503.982 326.889L517.991 319.029L526.699 298.747L544.857 286.213ZM549.872 290.911L530.732 303.168L522.91 324.489L512.565 327.77L506.383 335.844L503.982 349.217L501.978 356.973L486.848 359.71L475.967 365.821L468.812 374.914L465.905 383.485L465.507 394.382L468.812 410.64L439.547 417.184L450.94 418.672L477.417 419.267L505.877 417.879L537.511 415.3L659.857 418.37L704.954 419.767L724.108 422.539L782.204 421.44L845.088 421.801L839.412 420.81L821.136 418.326L808.871 411.62L784.231 411.08L774.14 393.061L763.275 383.009C762.176 382.483 761.469 382.135 760.916 381.863C759.411 381.124 759.042 380.943 755.006 379.228C753.318 378.511 751.283 378.076 749.448 377.684C748.145 377.405 746.941 377.148 746.034 376.826C745.372 376.592 744.333 376.476 743.453 376.377C742.877 376.312 742.368 376.255 742.078 376.178C741.854 376.118 741.227 376.115 740.723 376.112C740.401 376.11 740.13 376.108 740.043 376.092C739.805 376.05 738.715 376.142 738.715 376.142L733.829 376.009L729.067 377.171L714.718 381.955L700.658 356.973L691.847 352.839L682.083 351.519L666.337 354.158L657.277 358.908L653.231 347.297L650.24 339.292L643.906 332.871L630.184 326.889L617.253 325.13L605.114 328.033L602.387 314.574L593.327 304.106L582.683 296.277L549.872 290.911Z" fill="#838383"/>
<path fill-rule="evenodd" clip-rule="evenodd" d="M1015.49 580.667L975.731 573.769L957.573 586.303L948.865 606.585L934.856 614.445L930.598 622.202L927.962 639.075L909.911 644.529L898.351 654.856L893.077 663.617L891.454 670.627L891.454 686.09L892.625 692.57L893.52 695.042L890.725 696.69L866.046 701.745L861.981 704.74V709.104L868.426 710.195L938.239 711.285L957.378 709.203L990.499 708.41L1078.86 710.095L1124.77 711.087L1164.7 716.64L1197.95 713.276H1237.36L1277.85 713.952L1285.83 710.573L1289.36 709.942L1292.85 707.195L1289.84 704.357L1269.66 703.411L1250.29 700.257L1244.61 696.158L1239.75 694.807L1218.66 694.041L1209.34 678.86L1200.87 670.977L1196.79 666.256C1192.65 664.264 1189.49 662.914 1189.49 662.914C1187.81 662.202 1185.95 661.858 1184.22 661.538C1182.92 661.298 1181.7 661.072 1180.69 660.714C1180.01 660.472 1177.79 660.222 1175.86 660.006C1174.48 659.85 1173.26 659.712 1172.86 659.607C1172.16 659.42 1166.2 659.531 1163.37 659.584C1162.65 659.597 1162.13 659.607 1161.95 659.607L1147.44 663.617L1141.81 652.534L1139.35 646.464L1135.83 642.682L1131.53 639.869L1123.78 635.908L1113.4 634.325L1097.21 636.7L1090.88 639.075L1086.57 625.88L1082.17 619.723L1070.21 612.686L1049.18 608.2L1038.63 610.311L1037.39 600.484L1026.58 588.671L1015.49 580.667ZM961.606 590.724L980.746 578.467L1013.56 583.833L1024.2 591.662L1033.26 602.13L1035.99 615.589L1048.13 612.686L1061.06 614.445L1074.78 620.427L1081.11 626.848L1084.1 634.853L1088.15 646.464L1097.21 641.714L1112.96 639.075L1122.72 640.395L1131.53 644.529L1145.59 669.511L1159.94 664.727L1164.7 663.565L1169.59 663.698C1169.59 663.698 1170.68 663.606 1170.92 663.648C1171 663.664 1171.28 663.666 1171.6 663.667C1172.1 663.671 1172.73 663.674 1172.95 663.734C1173.24 663.811 1173.75 663.868 1174.33 663.933C1175.21 664.032 1176.25 664.148 1176.91 664.382C1177.82 664.704 1179.02 664.961 1180.32 665.24C1182.16 665.632 1184.19 666.067 1185.88 666.784C1189.92 668.499 1190.29 668.68 1191.79 669.42C1192.34 669.691 1193.05 670.039 1194.15 670.565L1205.01 680.617L1215.1 698.636L1239.75 699.176L1252.01 705.881L1270.29 708.366L1275.96 709.357L1213.08 708.996L1154.98 710.095L1135.83 707.323L1090.73 705.926L968.385 702.856L936.751 705.435L908.291 706.823L881.814 706.228L870.421 704.74L899.686 698.195L896.381 681.938L896.779 671.041L899.686 662.47L906.841 653.377L917.722 647.266L932.852 644.529L934.856 636.773L937.257 623.4L943.439 615.326L953.784 612.045L961.606 590.724Z" fill="#838383"/>
</svg>
