<svg width="1280" height="720" viewBox="0 0 1280 720" fill="none" xmlns="http://www.w3.org/2000/svg">
<path d="M11.9902 219.28L456.158 218.803M455.355 218.646C455.209 217.473 442.191 219.13 440.012 218.646C436.512 217.868 432.231 217.269 428.067 216.074C422.151 216.074 414.969 214.954 410.422 210.913C406.315 207.262 400.525 208.83 395.189 208.83H386.312C384.44 208.83 382.23 210.244 380.503 208.83C379.064 207.653 377.861 202.736 377.332 200.886C376.209 196.954 373.226 194.951 371.736 191.076C368.448 187.679 363.865 183.945 360.448 181.432C354.347 176.946 347.954 173.98 340.721 172.336C337.742 172.233 334.006 171.24 330.967 171.24C327.316 171.24 323.779 172.448 320.336 173.213C317.648 173.81 310.881 177.108 308.281 175.952C305.51 174.721 303.88 167.91 302.363 166.089C298.462 161.407 297.87 155.787 292.828 151.842C287.035 149.644 283.935 147.987 278.033 146.143C272.801 144.508 265.81 147.02 260.389 147.02C256.051 147.02 251.676 153.631 247.895 151.184C245.602 149.701 244.186 139.182 243.007 136.824C241.83 134.47 239.597 132.712 238.285 130.482C235.957 126.524 229.434 124.019 225.424 122.236C217.931 118.906 209.318 118.087 200.77 118.087C199.374 118.087 194.323 120.702 193.646 119.95C191.471 117.533 191.314 110.618 189.92 107.676C187.234 102.005 183.345 99.3465 178.194 94.8532C175.703 93.2212 174.167 91.7034 171.51 90.5225C170.123 89.9059 169.119 90.1672 167.705 89.853C166.097 89.4958 164.606 88.2575 162.948 88.0206C156.351 87.0782 149.7 83.9223 143.014 83.6747C140.231 83.5716 137.604 82.3113 134.904 82.9112C131.512 83.6651 129.874 84.5453 126.794 86.305C125.089 87.2794 120.769 88.4114 119.78 90.1407C119.135 91.2699 117.343 91.0495 116.821 92.223C116.535 92.8666 114.743 94.4751 114.082 94.8532C111.247 96.473 107.944 106.251 106.848 109.868C106.191 114.799 104.67 117.911 98.5192 118.635C93.9902 119.168 90.7608 122.426 87.9983 125.978C84.5838 130.368 85.3446 133.567 83.9433 138.471C83.2974 140.732 83.9433 143.657 83.9433 146.033C83.9433 147.302 83.0694 148.248 83.0694 149.517C83.0694 150.952 81.8877 150.783 80.9944 151.676C79.1742 153.497 73.0135 154.731 70.6606 155.254C68.2469 155.79 65.908 157.075 63.6483 157.72C53.5519 160.605 48.159 169.765 44.6586 179.488C42.7348 184.832 44.6586 190.153 44.6586 195.841C44.6586 197.762 44.4045 203.918 46.0504 205.235C48.7977 207.433 41.6592 209.409 39.7876 210.259C37.1413 211.462 34.1839 210.379 32.133 212.02C30.6532 213.204 25.0919 212.67 23.2607 213.586C21.1096 214.661 19.1827 214.674 17.0644 215.615C15.4007 216.355 11.5266 218.305 10.7217 219.914" stroke="#D3D1D9" stroke-width="3" stroke-linecap="round"/>
<path d="M322.785 367.7C325.15 369.803 331.957 369.603 335.153 369.603C342.071 369.603 348.99 369.603 355.908 369.603C357.97 369.603 360.803 369.345 362.744 368.652C365.607 367.629 369.309 367.929 371.906 366.749C372.941 366.278 374.061 366.432 375.183 366.432C378.542 366.432 381.797 365.834 385.155 365.797C389.147 365.755 393.143 365.797 397.136 365.797C403.193 365.797 409 366.432 415.072 366.432C423.034 366.432 431.315 366.815 439.35 367.066C449.991 367.399 460.334 367.582 470.923 366.467C477.997 365.722 485.442 366.432 492.559 366.432C498.109 366.432 504.068 365.819 509.578 366.467C516.655 367.3 523.991 367.7 531.109 367.7C536.722 367.7 542.125 368.969 547.67 368.969C550.847 368.969 554.286 370.061 557.466 370.237C561.285 370.45 556.114 367.555 555.07 367.207C552.655 366.402 550.121 366.278 547.6 365.797C543.734 365.061 539.499 363.895 535.584 363.895C533.306 363.895 531.266 363.418 529.065 363.26C526.006 363.042 522.078 363.176 519.057 362.485C512.98 361.096 505.996 361.992 499.747 361.992C495.928 361.992 486.08 362.723 485.793 357.552C485.571 353.562 480.378 351.464 477.548 349.8C472.661 346.925 469.38 342.192 463.981 339.792C461.37 338.632 455.686 337.112 452.952 339.299C452.268 339.846 439.378 333.772 437.588 333.132C434.487 332.025 434.795 332.964 433.642 329.503C432.866 327.175 431.88 324.163 430.752 322.033C429.577 319.814 427.4 318.192 426.171 316.042C425.262 314.451 423.821 311.957 422.648 310.616C418.503 305.879 414.586 301.975 407.636 301.736C402.44 301.557 397.093 299.99 392.238 302.687C390.338 303.743 388.198 305.257 387.481 307.409C386.809 309.425 387.279 311.366 386.811 313.47C385.651 318.693 381.76 317.593 377.332 317.593C373.284 317.593 368.356 317.209 364.964 319.848C362.133 322.05 361.37 326.287 359.079 329.151C358.037 330.454 358.151 331.547 356.049 331.547C353.743 331.547 351.903 331.428 349.741 330.948C345.984 330.113 340.814 332.841 338.007 335.352C335.402 337.683 334.243 339.083 332.616 342.012C331.487 344.044 332.143 346.287 331.347 348.355C330.44 350.715 332.543 359.919 331.03 360.864C329.721 361.683 322.453 367.217 323.419 367.7" stroke="#D3D1D9" stroke-width="3" stroke-linecap="round"/>
<path d="M675.759 327.741C670.894 327.741 663.096 328.845 658.046 328.845C658.792 327.354 666.526 326.74 668.431 325.838C673.929 323.234 684.988 323.301 690.982 323.301C698.893 323.301 706.803 322.667 714.767 322.667C717.032 322.667 726.985 322.292 728.087 319.813C728.759 318.301 729.566 314.421 731.576 314.421C733.271 314.421 735.618 314.988 736.826 313.646C737.601 312.785 738.737 309.775 738.87 308.713C739.091 306.94 741.768 306.634 743.028 306.176C747.729 304.466 754.132 303.835 758.532 306.035C759.993 306.765 761.454 308.681 762.831 307.303C763.586 306.549 764.774 304.875 765.509 303.956C767.793 301.101 774.088 300.334 777.419 300.467C779.635 300.556 778.784 299.889 780.238 298.071C780.871 297.281 782 295.485 782 294.442C782 292.078 784.831 287.573 786.299 285.738C788.686 282.754 787.139 276.934 789.929 274.145C793.469 270.604 799.611 269.403 804.552 270.163C807.238 270.576 811.276 270.405 813.714 271.432C815.873 272.341 817.242 274.052 819.07 275.096C820.192 275.738 822.666 279.222 823.228 280.488C823.733 281.623 825.287 283.974 826.259 284.751C827.037 285.374 831.063 282.073 832.742 282.073C834.914 282.073 840.193 282.632 841.587 284.258C843.36 286.327 846.741 287.249 847.965 290.002C849 292.33 849.577 294.743 850.819 296.979C851.713 298.588 854.516 297.93 856.21 297.93C858.486 297.93 862.009 298.631 863.963 299.833C866.357 301.307 868.181 302.807 870.164 304.907C871.554 306.379 870.906 309.675 871.75 311.532C872.657 313.528 871.908 316.888 871.441 318.982L871.398 319.178C871.085 320.587 868.456 322.667 870.799 322.667C875.105 322.667 880.161 324.028 884.4 325.239C886.031 325.705 886.312 327.794 884.4 328.34C882.364 328.922 880.52 329.01 878.41 329.01C873.445 329.01 868.303 328.375 863.505 328.375C857.141 328.375 850.07 329.258 843.877 327.882C840.684 327.173 836.87 327.741 833.588 327.741C828.881 327.741 824.165 327.107 819.387 327.107C808.935 327.107 798.677 325.838 788.202 325.838C772.953 325.838 757.929 328.283 742.675 329.01C739.038 329.183 735.57 328.375 731.963 328.375C726.613 328.375 721.549 328.278 716.282 327.776C708.476 327.033 700.422 327.107 692.568 327.107C686.979 327.107 681.178 327.741 675.759 327.741Z" stroke="#D3D1D9" stroke-width="3" stroke-linecap="round"/>
<path d="M744.577 545.297C744.818 543.366 780.187 544.663 782.916 544.663C789.244 544.663 795.531 544.2 801.697 543.43C811.118 542.252 820.858 542.76 830.416 542.76C836.06 542.76 842.287 541.418 847.823 540.364C856.746 538.664 866.265 538.32 875.379 538.32C884.538 538.32 893.649 538.244 902.758 538.919C907.874 539.298 913.139 538.954 918.263 538.954C926.171 538.954 934.053 540.223 942.013 540.223C951.047 540.223 960.036 541.491 969.11 541.491C973.21 541.491 977.309 541.491 981.408 541.491C982.069 541.491 986.651 541.972 985.601 540.857C984.323 539.499 983.719 539.027 981.831 538.919C978.234 538.714 974.29 538.434 970.766 537.651C970.319 537.551 970.969 536.2 971.154 535.783C972.766 532.157 972.916 527.824 972.916 523.873C972.916 521.278 971.688 520.238 970.872 517.882C970.336 516.334 971.083 512.005 969.745 511.187C967.261 509.669 966.931 507.77 963.719 507.276C961.702 506.966 960.152 506.606 958.01 506.606C955.473 506.606 952.936 506.606 950.399 506.606C949.139 506.606 946.857 501.714 945.959 500.616C941.996 495.772 939.117 492.652 932.463 492.652C930.654 492.652 926.891 492.304 925.486 493.428C924.936 493.868 921.547 495.853 921.046 494.908C920.177 493.266 919.862 490.672 919.602 488.847C919.297 486.714 918.378 485.82 917.417 484.09C915.32 480.316 905.92 478.848 902.018 478.698C897.302 478.517 892.693 477.956 888.17 479.967C885.804 481.018 885.184 484.144 883.166 485.041C881.756 485.668 879.771 489.134 878.761 490.432C876.417 493.447 875.106 496.821 873.476 500.264C871.716 503.979 874.51 508.689 870.023 508.509C867.712 508.417 865.162 508.303 862.869 508.544C860.089 508.837 859.805 510.512 857.76 511.681C856.475 512.415 852.881 520.365 851.77 518.975C849.884 516.618 845.094 516.12 842.396 516.12C839.095 516.12 830.673 518.444 829.605 522.181C829.274 523.34 828.665 525.553 827.808 526.41C826.065 528.153 822.256 526.066 820.056 527.044C816.729 528.523 816.001 533.213 813.572 535.642C810.195 539.019 801.528 538.954 797.222 538.954C790.233 538.954 783.244 538.954 776.256 538.954C769.735 538.954 762.106 538.143 755.994 540.716C752.176 542.324 747.781 542.749 743.943 544.029" stroke="#D3D1D9" stroke-width="3" stroke-linecap="round"/>
<path d="M296.779 639.804C308.097 639.804 319.602 639.804 330.889 639.804C340.226 639.804 349.398 637.901 358.621 637.901C362.217 637.901 365.493 636.901 368.875 635.999C372.784 634.956 377.093 635.364 381.103 635.364C393.554 635.364 405.856 635.735 418.208 637.126C427.14 638.133 436.574 639.17 445.587 639.17C454.25 639.17 462.712 639.17 471.31 639.17C473.972 639.17 478.303 639.412 480.719 638.395C485.371 636.436 492.45 637.819 497.633 637.901C508.971 638.081 520.243 638.933 531.602 639.17C542.151 639.39 552.567 643.702 563.174 640.756C567.784 639.475 573.635 640.439 578.397 640.439C585.997 640.439 593.954 640.291 601.442 641.566C604.068 642.013 608.317 642.165 611.027 641.672C613.727 641.181 621.981 641.073 619.237 641.073C608.844 641.073 598.937 635.999 588.44 635.999C586.634 635.999 578.969 637.217 577.269 635.858C575.138 634.153 574.978 631.126 573.323 629.374C571.801 627.762 571.956 625.47 570.433 623.947C568.646 622.16 566.422 620.78 564.443 619.226C561.422 616.852 557.823 616.172 554.647 614.151C548.047 609.952 537.672 611.262 530.192 611.262C528.184 611.262 526.175 611.262 524.167 611.262C520.884 611.262 516.424 612.959 513.349 611.755C512.769 611.529 513.006 608.902 513.102 608.372C513.463 606.387 513.428 606.628 512.574 604.919C511.444 602.66 508.499 600.804 506.372 599.528C503.45 597.775 501.227 595.522 498.161 593.819C492.984 590.943 483.541 590.724 477.97 592.375C476.308 592.867 473.997 594.51 472.156 594.101C469.318 593.47 468.29 587.854 466.095 586.208C464.022 584.653 462.875 582.125 460.739 580.464C457.626 578.043 453.515 577.111 449.957 575.425C446.605 573.838 441.209 573.205 437.588 573.205C436.154 573.205 434.914 572.571 433.465 572.571C431.156 572.571 430.329 573.202 430.329 571.021C430.329 569.18 429.131 564.061 428.074 562.74C426.298 560.52 425.813 559.267 423.352 557.701C418.241 554.448 411.841 552.811 406.015 551.147C398.61 549.031 390.083 547.834 382.406 547.834C374.212 547.834 369.014 553.26 364.4 558.899C361.386 562.583 363.421 568.898 356.894 569.4C348.371 570.055 344.984 576.703 344.984 584.305C344.984 592.179 341.105 592.129 335.118 595.722C330.817 598.302 325.14 600.203 322.644 604.919C320.128 609.671 318.345 613.46 318.345 618.908C318.345 622.746 320.012 632.755 317.076 635.364C313.401 638.631 302.046 635.614 299.951 639.804" stroke="#D3D1D9" stroke-width="3" stroke-linecap="round"/>
<path d="M483.75 96.0901C486.383 92.8717 491.818 91.12 495.985 90.5991C495.985 98.9406 512.592 103.522 516.239 109.903C518.091 113.145 521.882 114.784 523.991 117.796C525.164 119.472 528.325 122.265 530.193 123.364C533.904 125.547 538.027 127.56 541.116 130.341C545.107 133.933 552.203 135.556 557.466 135.556C563.055 135.556 567.729 136.329 573.358 134.922C579.919 133.282 586.498 132.517 593.127 130.975C598.15 129.807 603.748 126.676 608.843 126.676C611.339 126.676 613.232 125.408 615.855 125.408C619.585 125.408 623.914 125.452 627.578 126.118C633.821 127.253 638.904 127.842 645.137 127.275C651.349 126.711 650.905 123.312 654.593 119.19C657.675 115.745 658.075 112.279 658.075 108.01C658.075 106.953 657.717 105.585 657.717 104.528C657.717 103.18 657.976 102.787 657.717 101.622C657.555 100.892 656.583 97.889 656.096 97.4996C654.848 96.501 654.501 94.4258 652.854 93.6939C650.897 92.8239 648.403 93.1199 646.582 92.1082C644.74 91.0849 641.845 91.933 639.781 91.2978C637.805 90.6897 635.514 91.2414 633.579 90.3816C629.265 88.464 622.356 90.3816 617.681 90.3816C609.899 90.3816 602.245 89.254 594.501 89.254C593.652 89.254 586.331 89.9049 586.044 88.9016C585.429 86.7495 587.429 84.6071 587.876 82.5941C588.603 79.3253 588.674 74.5643 591.224 72.2696C593.693 70.0475 598.028 68.9613 600.819 67.2864C603.82 65.4859 607.475 61.8423 609.287 58.6724C611.112 55.4778 613.649 52.7342 614.638 49.1054C615.408 47.2726 618.487 41.9576 615.958 40.4547C611.119 40.748 605.257 43.7903 599.963 43.7903C589.589 47.4192 597.42 38.24 599.328 36.0927C599.529 35.8676 579.974 35.6162 579.156 35.6162C567.897 35.6162 566.86 39.5078 556.32 43.607C546.155 47.5599 536.973 59.6166 528.388 66.1134C523.558 69.7689 524.393 74.3975 511.93 68.9725C507.839 68.9725 505.278 71.2115 501.923 73.8476C499.531 75.7271 499.547 77.5032 496.645 78.5395C494.857 79.178 490.638 80.0272 489.599 81.3256C488.702 82.4471 486.826 83.2056 485.793 84.497C484.331 86.3244 484.516 89.6858 484.031 92.0025C483.591 94.1087 480.904 99.5678 483.75 96.0901Z" stroke="#D3D1D9" stroke-width="3" stroke-linecap="round"/>
</svg>
