<svg width="230" height="66" viewBox="0 0 230 66" fill="none" xmlns="http://www.w3.org/2000/svg">
<path d="M65.7623 56.5127L0.373291 63.2872H219.515L224.522 60.6363L213.919 56.5127C219.574 29.1789 201.548 27.0582 191.828 29.4145C189 18.3396 173.566 18.32 166.202 19.6945C166.202 7.6771 158.151 3.88729 154.126 3.49456C130.562 -0.982523 121.922 22.4436 120.548 34.7163C114.421 27.4116 105.231 35.7963 101.402 40.9018C96.4539 31.0051 84.2205 41.0981 78.7223 47.3818C70.9463 49.2669 66.8423 54.2545 65.7623 56.5127Z" fill="#FF0000"/>
<path fill-rule="evenodd" clip-rule="evenodd" d="M130.599 14.047C125.612 20.5017 123.196 29.0406 122.535 34.9389L122.016 39.5788L119.015 36.0016C117.792 34.5426 116.539 33.9845 115.33 33.875C114.053 33.7594 112.598 34.1268 111.028 34.9339C107.859 36.5633 104.821 39.6764 103.002 42.1018L101.061 44.6906L99.6134 41.7962C98.6102 39.7897 97.3986 39.0415 96.1896 38.8238C94.8476 38.5821 93.1327 38.9284 91.1261 39.8809C87.1177 41.7837 82.8976 45.6472 80.2274 48.6988L79.8098 49.1761L79.1935 49.3255C72.03 51.0621 68.4 55.6329 67.5666 57.3756L67.0831 58.3865L39.0853 61.2872H219.018L219.721 60.9151L211.617 57.7637L211.96 56.1075C214.707 42.828 211.577 36.4443 207.461 33.4464C203.127 30.2898 196.893 30.2444 192.299 31.3582L190.379 31.8237L189.89 29.9093C188.738 25.3974 185.032 22.9652 180.254 21.832C175.471 20.6973 170.067 21.0077 166.569 21.6606L164.202 22.1024V19.6945C164.202 14.1742 162.372 10.7474 160.264 8.65433C158.104 6.50841 155.527 5.64072 153.932 5.48511L153.841 5.47631L153.753 5.45941C142.825 3.38322 135.492 7.71339 130.599 14.047ZM154.414 1.5136C141.823 -0.848 133.082 4.28968 127.433 11.6016C122.832 17.5574 120.264 24.9497 119.108 30.9343C118.026 30.3406 116.879 29.9989 115.69 29.8913C113.402 29.6842 111.171 30.3625 109.199 31.3766C106.261 32.8873 103.573 35.3095 101.565 37.557C100.276 36.0992 98.6967 35.2109 96.8986 34.8871C94.3833 34.4342 91.7683 35.1483 89.4108 36.2674C84.9158 38.4011 80.4881 42.4253 77.6336 45.5956C70.5534 47.4928 66.3038 51.7923 64.5251 54.6302L0.167175 61.2979L0.373279 65.2872H220.012L229.323 60.3575L216.199 55.2534C218.535 42.2005 215.492 34.3472 209.816 30.2131C204.761 26.5309 198.173 26.246 193.172 27.0976C191.032 21.7668 186.13 19.1148 181.178 17.94C176.679 16.8729 171.834 16.9288 168.105 17.3821C167.65 12.1172 165.647 8.36243 163.083 5.81623C160.249 3.00116 156.839 1.77269 154.414 1.5136Z" fill="#FF0000"/>
</svg>
