<svg width="1280" height="720" viewBox="0 0 1280 720" fill="none" xmlns="http://www.w3.org/2000/svg">
<g clip-path="url(#clip0_51_1779)">
<path fill-rule="evenodd" clip-rule="evenodd" d="M262.34 474.207C243.799 460.919 228.876 439.848 228.876 408.246H237.876C237.876 436.519 251.029 455.028 267.582 466.892C284.259 478.844 304.392 484.012 317.805 485.07C335.27 485.284 362.576 485.347 387.906 484.842C400.609 484.589 412.784 484.193 422.958 483.605C433.228 483.012 441.172 482.235 445.582 481.282C450.881 480.136 462.02 479.516 476.052 479.189C490.277 478.858 507.973 478.826 526.73 478.978C564.252 479.28 606.143 480.318 633.27 481.182L633.341 481.185L756.216 488.986L756.561 489.063C760.94 490.043 765.855 491.639 770.147 493.909C774.319 496.116 778.549 499.3 780.598 503.78C782.858 508.72 782.004 514.139 778.124 519.387C774.413 524.408 767.779 529.564 757.715 534.993L756.992 535.383L669.062 547.195H500.709C478.985 551.11 447.139 560.03 421.687 574.05C395.686 588.372 378.477 606.747 381.663 629.006L381.709 629.323V723.794H372.709V629.956C368.854 601.688 391.097 580.625 417.345 566.167C444.09 551.435 477.193 542.249 499.518 538.265L499.91 538.195H668.46L754.158 526.683C763.336 521.657 768.404 517.395 770.887 514.037C773.264 510.821 773.026 508.863 772.414 507.523C771.59 505.723 769.46 503.727 765.939 501.865C762.636 500.118 758.665 498.783 754.934 497.923L632.913 490.176C605.83 489.313 564.054 488.279 526.658 487.977C507.94 487.826 490.35 487.859 476.261 488.187C461.978 488.519 451.775 489.151 447.484 490.079C442.305 491.198 433.712 491.999 423.477 492.59C413.145 493.187 400.845 493.586 388.086 493.84C362.563 494.349 335.075 494.284 317.547 494.067L317.402 494.065L317.257 494.054C302.594 492.926 280.698 487.365 262.34 474.207ZM844.341 416.38L895.462 421.173L918.393 436.46L933.299 462.959L939.315 489.056V522.736L939.22 523.192C925.54 588.55 894.693 612.376 878.319 615.885C862.09 623.837 819.212 637.926 770.256 634.143H717.384L639.19 639.865L638.75 639.811C623.439 637.916 599.812 635.36 578.714 633.847C568.158 633.09 558.303 632.599 550.466 632.575C546.544 632.564 543.198 632.67 540.557 632.905C537.779 633.153 536.23 633.511 535.603 633.779L534.804 634.122L533.936 634.142C521.612 634.43 503.324 638.137 488.65 648.105C474.239 657.893 463.176 673.759 464.632 699.229L464.639 699.357V723.794H455.639V699.612C454.03 670.733 466.87 652.018 483.593 640.66C499.766 629.674 519.432 625.614 532.953 625.166C534.871 624.517 537.277 624.162 539.758 623.941C542.781 623.671 546.429 623.563 550.493 623.576C558.629 623.6 568.717 624.107 579.358 624.87C600.454 626.383 623.994 628.923 639.415 630.824L717.055 625.143H770.606L770.781 625.157C818.493 628.884 860.249 614.86 874.841 607.565L875.407 607.281L876.03 607.165C887.047 605.116 916.766 585.963 930.315 521.803V490.08L924.82 466.243L911.606 442.753L892.359 429.921L843.501 425.341L844.341 416.38Z" fill="#FF0000"/>
</g>
<defs>
<clipPath id="clip0_51_1779">
<rect width="1280" height="720" fill="white"/>
</clipPath>
</defs>
</svg>
