<svg width="743" height="410" viewBox="0 0 743 410" fill="none" xmlns="http://www.w3.org/2000/svg">
<path fill-rule="evenodd" clip-rule="evenodd" d="M693.236 40.9964L687.55 -1.64574L696.471 -2.83521L702.188 40.0395L702.197 40.1558C703.984 62.2435 701.243 95.538 686.974 123.7C672.554 152.16 646.305 175.351 601.822 176.146C517.435 177.653 473.529 173.083 461.387 170.406C449.56 169.465 431.59 168.348 415.718 168.021C407.701 167.856 400.305 167.894 394.536 168.245C391.645 168.422 389.256 168.671 387.444 168.99C386.54 169.149 385.847 169.314 385.343 169.47C384.893 169.61 384.721 169.703 384.721 169.703V169.703C383.762 170.341 382.348 171.163 380.849 172.036C380.45 172.268 380.046 172.504 379.642 172.74C377.606 173.932 375.35 175.286 373.191 176.751C371.015 178.227 369.06 179.736 367.583 181.208C366.04 182.747 365.393 183.879 365.218 184.547L365.216 184.555C365.14 184.845 365.075 185.092 365.644 185.718C366.46 186.617 368.394 187.951 372.476 189.347C380.575 192.115 395.127 194.473 419.521 195.658C497.737 199.455 610.367 201.671 656.914 202.304L657.155 202.307L657.393 202.336C672.463 204.158 694.669 211.067 712.636 226.032C730.702 241.08 744.361 264.212 742.144 297.822C745.186 317.545 740.448 345.729 716.553 367.063C692.486 388.549 649.84 402.327 578.547 394.677C571.699 394.229 561.861 394.587 554.284 396.896C550.464 398.061 547.687 399.584 546.058 401.318C544.626 402.842 543.904 404.683 544.406 407.441L535.551 409.051C534.532 403.448 536.138 398.733 539.499 395.155C542.662 391.788 547.143 389.665 551.66 388.287C560.727 385.523 571.835 385.209 579.236 385.703L579.327 385.709L579.418 385.718C649.46 393.25 689.138 379.474 710.559 360.349C731.953 341.249 735.99 316.057 733.178 298.744L733.095 298.228L733.131 297.706C735.3 266.983 723.035 246.407 706.876 232.947C690.617 219.405 670.299 213.007 656.548 211.3C609.827 210.662 497.326 208.445 419.085 204.647C394.544 203.456 378.927 201.063 369.565 197.863C364.917 196.274 361.299 194.32 358.982 191.77C356.424 188.954 355.639 185.592 356.513 182.263C357.288 179.309 359.255 176.803 361.229 174.834C363.271 172.799 365.741 170.93 368.138 169.303C370.552 167.665 373.017 166.19 375.093 164.974C375.599 164.678 376.071 164.403 376.509 164.148C377.959 163.303 379.039 162.674 379.749 162.201C381.452 161.066 383.797 160.493 385.885 160.126C388.168 159.724 390.932 159.448 393.988 159.262C400.115 158.889 407.791 158.856 415.904 159.023C432.149 159.358 450.487 160.505 462.421 161.459L462.746 161.486L463.065 161.558C473.573 163.96 516.551 168.667 601.661 167.147C642.316 166.421 665.795 145.587 678.946 119.632C692.224 93.4266 694.914 61.9844 693.236 40.9964ZM577.167 57.5155C592.791 38.6004 597.643 14.3722 597.243 -2.13142L606.24 -2.34952C606.678 15.72 601.449 42.25 584.106 63.2471C566.615 84.4232 537.306 99.3571 490.984 94.9958C467.869 98.27 395.035 99.0307 279.845 77.4631C265.589 77.195 243.028 79.466 221.569 87.1379C200.137 94.8003 180.474 107.596 170.703 127.919C170.506 129.273 169.962 130.52 169.334 131.59C168.471 133.058 167.234 134.555 165.678 136.077C162.566 139.123 157.786 142.644 150.916 146.595C137.153 154.51 114.409 164.484 78.2277 175.937L77.8176 176.066L77.3902 176.116C67.647 177.251 52.5091 180.333 38.9586 185.83C32.1889 188.576 25.9717 191.862 21.0501 195.693C16.1187 199.531 12.7176 203.735 11.1507 208.273C7.96297 217.503 11.104 225.706 17.1135 232.702C23.0926 239.662 31.5143 244.868 37.5398 247.529L68.386 255.713H196.186L379.109 264.146L499.634 275.809L571.915 279.71L572.246 279.778C575.065 280.361 578.259 281.262 581.078 282.497C583.674 283.634 586.857 285.433 588.537 288.28C589.482 289.88 589.963 291.844 589.52 293.972C589.1 295.995 587.945 297.682 586.551 299.06C583.853 301.727 579.313 304.16 572.904 306.544L572.602 306.656L527.18 316.503L481.348 320.432H426.519L344.695 312.639L344.671 312.637L280.107 306.826H149.143L88.8663 316.445C64.8244 323.441 17.8761 351.502 17.8761 408.246H8.87611C8.87611 345.447 60.9344 315.089 86.6438 307.719L86.9058 307.644L148.429 297.826H280.511L345.513 303.676L426.946 311.432H480.963L525.837 307.586L570.063 297.997C575.998 295.766 578.959 293.91 580.224 292.659C580.298 292.586 580.362 292.519 580.417 292.458C579.959 292.057 579.054 291.436 577.467 290.741C575.478 289.87 573.058 289.156 570.747 288.66L498.959 284.786L378.468 273.126L195.978 264.713H67.2124L34.5726 256.053L34.2632 255.919C27.3488 252.923 17.4888 246.95 10.2866 238.566C3.01425 230.1 -1.94339 218.617 2.64366 205.335C4.96408 198.616 9.74264 193.089 15.5218 188.591C21.3106 184.085 28.3348 180.427 35.5758 177.49C49.8468 171.701 65.567 168.471 75.9174 167.228C111.542 155.93 133.494 146.232 146.429 138.793C152.933 135.053 157.011 131.967 159.385 129.644C160.572 128.482 161.236 127.606 161.575 127.03C161.678 126.854 161.738 126.728 161.772 126.65L161.74 125.836L162.199 124.849C173.283 101.019 195.737 86.8158 218.539 78.6632C241.386 70.495 265.27 68.1388 280.408 68.4727L280.776 68.4808L281.138 68.5487C397.01 90.2746 469.103 89.1487 490.213 86.0135L490.759 85.9324L491.309 85.9858C535.378 90.2667 561.76 76.1686 577.167 57.5155Z" fill="#FF0000"/>
</svg>
