<svg width="1280" height="720" viewBox="0 0 1280 720" fill="none" xmlns="http://www.w3.org/2000/svg">
<g clip-path="url(#clip0_51_1779)">
<path fill-rule="evenodd" clip-rule="evenodd" d="M913.236 40.9964L907.55 -1.64574L916.471 -2.83521L922.188 40.0395L922.197 40.1558C923.984 62.2435 921.243 95.538 906.974 123.7C892.554 152.16 866.305 175.351 821.822 176.146C737.435 177.653 693.529 173.083 681.387 170.406C669.56 169.465 651.59 168.348 635.718 168.021C627.701 167.856 620.305 167.894 614.536 168.245C611.645 168.422 609.256 168.671 607.444 168.99C606.54 169.149 605.847 169.314 605.343 169.47C604.893 169.61 604.721 169.703 604.721 169.703C603.762 170.341 602.348 171.163 600.849 172.036C600.45 172.268 600.046 172.504 599.642 172.74C597.606 173.932 595.35 175.286 593.191 176.751C591.015 178.227 589.06 179.736 587.583 181.208C586.04 182.747 585.393 183.879 585.218 184.547L585.216 184.555C585.14 184.845 585.075 185.092 585.644 185.718C586.46 186.617 588.394 187.951 592.476 189.347C600.575 192.115 615.127 194.473 639.521 195.658C717.737 199.455 830.367 201.671 876.914 202.304L877.155 202.307L877.393 202.336C892.463 204.158 914.669 211.067 932.636 226.032C950.702 241.08 964.361 264.212 962.144 297.822C965.186 317.545 960.448 345.729 936.553 367.063C912.486 388.549 869.84 402.327 798.547 394.677C791.699 394.229 781.861 394.587 774.284 396.896C770.464 398.061 767.687 399.584 766.058 401.318C764.626 402.842 763.904 404.683 764.406 407.441L755.551 409.051C754.532 403.448 756.138 398.733 759.499 395.155C762.662 391.788 767.143 389.665 771.66 388.287C780.727 385.523 791.835 385.209 799.236 385.703L799.327 385.709L799.418 385.718C869.46 393.25 909.138 379.474 930.559 360.349C951.953 341.249 955.99 316.057 953.178 298.744L953.095 298.228L953.131 297.706C955.3 266.983 943.035 246.407 926.876 232.947C910.617 219.405 890.299 213.007 876.548 211.3C829.827 210.662 717.326 208.445 639.085 204.647C614.544 203.456 598.927 201.063 589.565 197.863C584.917 196.274 581.299 194.32 578.982 191.77C576.424 188.954 575.639 185.592 576.513 182.263C577.288 179.309 579.255 176.803 581.229 174.834C583.271 172.799 585.741 170.93 588.138 169.303C590.552 167.665 593.017 166.19 595.093 164.974C595.599 164.678 596.071 164.403 596.509 164.148C597.959 163.303 599.039 162.674 599.749 162.201C601.452 161.066 603.797 160.493 605.885 160.126C608.168 159.724 610.932 159.448 613.988 159.262C620.115 158.889 627.791 158.856 635.904 159.023C652.149 159.358 670.487 160.505 682.421 161.459L682.746 161.486L683.065 161.558C693.573 163.96 736.551 168.667 821.661 167.147C862.316 166.421 885.795 145.587 898.946 119.632C912.224 93.4266 914.914 61.9844 913.236 40.9964ZM797.167 57.5155C812.791 38.6004 817.643 14.3722 817.243 -2.13142L826.24 -2.34952C826.678 15.72 821.449 42.25 804.106 63.2471C786.615 84.4232 757.306 99.3571 710.984 94.9958C687.869 98.27 615.035 99.0307 499.845 77.4631C485.589 77.195 463.028 79.466 441.569 87.1379C420.137 94.8003 400.474 107.596 390.703 127.919C390.506 129.273 389.962 130.52 389.334 131.59C388.471 133.058 387.234 134.555 385.678 136.077C382.566 139.123 377.786 142.644 370.916 146.595C357.153 154.51 334.409 164.484 298.228 175.937L297.818 176.066L297.39 176.116C287.647 177.251 272.509 180.333 258.959 185.83C252.189 188.576 245.972 191.862 241.05 195.693C236.119 199.531 232.718 203.735 231.151 208.273C227.963 217.503 231.104 225.706 237.114 232.702C243.093 239.662 251.514 244.868 257.54 247.529L288.386 255.713H416.186L599.109 264.146L719.634 275.809L791.915 279.71L792.246 279.778C795.065 280.361 798.259 281.262 801.078 282.497C803.674 283.634 806.857 285.433 808.537 288.28C809.482 289.88 809.963 291.844 809.52 293.972C809.1 295.995 807.945 297.682 806.551 299.06C803.853 301.727 799.313 304.16 792.904 306.544L792.602 306.656L747.18 316.503L701.348 320.432H646.519L564.695 312.639L564.671 312.637L500.107 306.826H369.143L308.866 316.445C284.824 323.441 237.876 351.502 237.876 408.246H228.876C228.876 345.447 280.934 315.089 306.644 307.719L306.906 307.644L368.429 297.826H500.511L565.513 303.676L646.946 311.432H700.963L745.837 307.586L790.063 297.997C795.998 295.766 798.959 293.91 800.224 292.659C800.298 292.586 800.362 292.519 800.417 292.458C799.959 292.057 799.054 291.436 797.467 290.741C795.478 289.87 793.058 289.156 790.747 288.66L718.959 284.786L598.468 273.126L415.978 264.713H287.212L254.573 256.053L254.263 255.919C247.349 252.923 237.489 246.95 230.287 238.566C223.014 230.1 218.057 218.617 222.644 205.335C224.964 198.616 229.743 193.089 235.522 188.591C241.311 184.085 248.335 180.427 255.576 177.49C269.847 171.701 285.567 168.471 295.917 167.228C331.542 155.93 353.494 146.232 366.429 138.793C372.933 135.053 377.011 131.967 379.385 129.644C380.572 128.482 381.236 127.606 381.575 127.03C381.678 126.854 381.738 126.728 381.772 126.65L381.74 125.836L382.199 124.849C393.283 101.019 415.737 86.8158 438.539 78.6632C461.386 70.495 485.27 68.1388 500.408 68.4727L500.776 68.4808L501.138 68.5487C617.01 90.2746 689.103 89.1487 710.213 86.0135L710.759 85.9324L711.309 85.9858C755.378 90.2667 781.76 76.1686 797.167 57.5155Z" fill="#FF0000"/>
<path fill-rule="evenodd" clip-rule="evenodd" d="M757.097 411.209L758.003 402.301H762.943L845.99 411.703L845.041 420.081L846.389 420.358L844.578 429.174L757.097 411.209Z" fill="#FF0000"/>
</g>
<defs>
<clipPath id="clip0_51_1779">
<rect width="1280" height="720" fill="white"/>
</clipPath>
</defs>
</svg>
