<svg width="83" height="303" viewBox="0 0 83 303" fill="none" xmlns="http://www.w3.org/2000/svg">
<path fill-rule="evenodd" clip-rule="evenodd" d="M82.0617 247.205L75.0527 0.506836L68.0557 0.705636L75.0777 247.894L75.1197 248.138C78.1877 266.031 67.4257 278.377 61.8587 282.192L61.7667 282.255L61.6787 282.324C57.6537 285.479 46.0527 292.66 32.9712 295.33C27.8783 296.369 22.6316 293.644 17.6866 288.594C12.8394 283.643 9.03283 277.18 7.04793 272.769L0.664429 275.642C2.88863 280.584 7.11443 287.802 12.6848 293.491C18.1574 299.08 25.7137 303.955 34.371 302.188C48.7007 299.264 61.2127 291.557 65.9097 287.902C72.9607 283.017 85.5717 268.369 82.0617 247.205Z" fill="#FF0000"/>
</svg>
