<svg width="138" height="328" viewBox="0 0 138 328" fill="none" xmlns="http://www.w3.org/2000/svg">
<path fill-rule="evenodd" clip-rule="evenodd" d="M88.5933 102.971H95.5933V196.978L98.7811 251.174C100.893 257.298 102.643 266.806 101.21 276.261C99.7431 285.938 94.8749 295.779 83.5449 301.476C76.694 308.355 58.7679 319.184 37.3727 311.23L36.4323 310.88L20.6724 290.426L26.2174 286.153L40.7384 305C58.6684 311.161 73.6759 301.722 78.9177 296.194L79.36 295.728L79.9391 295.449C89.0869 291.045 93.051 283.379 94.2888 275.212C95.5464 266.914 93.917 258.339 92.0213 253.051L91.8516 252.578L88.5933 197.183V102.971Z" fill="#FF0000"/>
</svg>
