<svg width="138" height="328" viewBox="0 0 138 328" fill="none" xmlns="http://www.w3.org/2000/svg">
<path fill-rule="evenodd" clip-rule="evenodd" d="M136.7 259.359L129.691 12.6611L122.694 12.8599L129.716 260.048L129.758 260.292C132.826 278.185 122.064 290.531 116.497 294.346L116.405 294.409L116.317 294.478C112.292 297.633 100.691 304.814 87.6095 307.484C82.5166 308.523 77.2699 305.798 72.3249 300.748C67.4777 295.797 63.6711 289.334 61.6862 284.923L55.3027 287.796C57.5269 292.738 61.7527 299.956 67.3231 305.645C72.7957 311.234 80.352 316.109 89.0093 314.342C103.339 311.418 115.851 303.711 120.548 300.056C127.599 295.171 140.21 280.523 136.7 259.359Z" fill="#FF0000"/>
</svg>
