<svg width="1280" height="720" viewBox="0 0 1280 720" fill="none" xmlns="http://www.w3.org/2000/svg">
<path fill-rule="evenodd" clip-rule="evenodd" d="M226.05 492.724L247.1 504.533L392.779 539.173C394.547 538.992 396.654 539.317 398.925 539.993C401.704 540.821 405.108 542.291 409.135 544.601C417.057 549.145 427.6 557.063 440.826 570.204L546.623 598.669L568.676 605.381L566.638 612.078L544.694 605.399L437.202 576.478L436.541 575.816C423.298 562.573 413.02 554.899 405.652 550.673C401.966 548.559 399.064 547.339 396.927 546.702C394.685 546.034 393.604 546.103 393.387 546.152L392.601 546.326L244.528 511.117L226.365 500.927L141.694 557.374L-11.2844 610.125L-13.5663 603.507L138.561 551.05L226.05 492.724Z" fill="black"/>
</svg>
