<svg width="1280" height="720" viewBox="0 0 1280 720" fill="none" xmlns="http://www.w3.org/2000/svg">
<g clip-path="url(#clip0_51_3429)">
<path fill-rule="evenodd" clip-rule="evenodd" d="M468.847 -0.451339L485.194 -11.9745L550.886 81.2169L706.97 104.866L740.096 139.832L757.539 273.03L853.023 376.341L895.765 461.826L913.333 725.339L893.377 726.67L876.077 467.171L836.406 387.828L738.534 281.934L721.109 148.871L697.179 123.611L539.455 99.7132L468.847 -0.451339ZM362.418 114.167V-6.21291H382.418V114.312L382.417 114.385C382.176 130.794 386.745 155.343 400.82 175.174C414.48 194.421 437.589 210.014 476.722 208.845C561.674 206.31 604.623 207.763 615.901 208.891L619.052 209.206L621.447 211.277C632.261 220.63 646.013 237.444 652.254 258.108C658.674 279.365 657 304.515 636.795 328.328L636.677 328.467L601.84 366.621L453.301 431.608L433.111 726.687L413.158 725.322L434.175 418.145L589.934 350L621.659 315.254C636.846 297.272 637.797 279.416 633.108 263.89C628.656 249.148 619.001 236.391 610.711 228.532C596.665 227.58 555.069 226.516 477.319 228.836C431.502 230.204 402.046 211.458 384.51 186.75C367.411 162.658 362.146 133.682 362.418 114.167Z" fill="#FF0000"/>
</g>
<defs>
<clipPath id="clip0_51_3429">
<rect width="1280" height="720" fill="white"/>
</clipPath>
</defs>
</svg>
