<svg width="1280" height="720" viewBox="0 0 1280 720" fill="none" xmlns="http://www.w3.org/2000/svg">
<g clip-path="url(#clip0_179_26)">
<path fill-rule="evenodd" clip-rule="evenodd" d="M59.5 3.73535H67.5V221.323L362.5 227.823V279.2L195.06 408.495L343.505 607.235H507.842L507.997 611.075C508.146 614.793 508.246 618.092 508.338 621.124C508.43 624.195 508.515 626.993 508.635 629.675C508.867 634.869 509.21 638.893 509.905 642.125C510.59 645.311 511.573 647.506 512.944 649.175C514.305 650.831 516.289 652.262 519.466 653.514C527.422 656.648 535.595 659.101 547.591 659.562C559.691 660.027 575.829 658.47 599.656 653.325C600.82 653.074 601.872 652.85 602.826 652.647C606.68 651.827 608.919 651.351 610.359 650.802C610.591 650.714 610.757 650.639 610.872 650.581C610.892 650.096 610.829 649.317 610.625 647.926C610.524 647.232 610.401 646.464 610.258 645.562C610.117 644.671 609.96 643.675 609.802 642.573C609.163 638.138 608.5 632.088 608.5 623.735C608.5 620.824 610.619 619.034 612.003 618.138C613.561 617.13 615.594 616.325 617.819 615.642C622.325 614.259 628.656 613.076 636.247 612.052C651.49 609.997 672.539 608.491 695.954 607.489C742.809 605.484 799.551 605.484 839.177 607.239L840.629 607.304L841.701 608.285C845.32 611.598 848.928 615.161 852.627 618.814C867.698 633.696 884.277 650.066 909.207 657.072C939.869 665.688 984.021 660.092 1053.84 615.367C1054.46 614.969 1055.13 614.741 1055.56 614.608C1056.05 614.455 1056.6 614.324 1057.17 614.208C1058.3 613.975 1059.72 613.759 1061.36 613.559C1064.65 613.155 1069.04 612.784 1074.23 612.471C1084.63 611.845 1098.4 611.444 1113.29 611.522C1141.9 611.671 1175.2 613.586 1196.44 619.286L1244 575.968V341.618L1155.34 228.741L1074.92 267.735H1004.55L959.537 210.218C913.159 209.861 844.331 213.473 783.294 216.677C780.237 216.838 777.199 216.997 774.184 217.155C742.213 218.829 712.87 220.326 690.793 220.977C679.761 221.303 670.478 221.42 663.561 221.237C660.109 221.146 657.171 220.979 654.866 220.712C653.715 220.579 652.656 220.413 651.736 220.202C650.883 220.005 649.866 219.707 648.977 219.186C645.061 216.891 642.959 213.563 642.193 209.945C641.463 206.496 641.984 202.999 642.8 200.101C643.627 197.164 644.846 194.53 645.83 192.663C646.328 191.72 646.777 190.95 647.108 190.407C647.274 190.135 647.41 189.919 647.509 189.766C647.558 189.689 647.598 189.628 647.628 189.583L647.664 189.528L647.676 189.51L647.68 189.504L647.682 189.501C647.682 189.501 647.684 189.499 651 191.735L647.684 189.499L648.836 187.79L743 185.338V152.235H828.5V131.235H857.5V97.7354H970.5V67.2354H1070V5.23535H1078V75.2354H978.5V105.735H865.5V139.235H836.5V160.235H751V193.133L653.296 195.677C653.173 195.899 653.042 196.139 652.907 196.395C652.079 197.966 651.123 200.057 650.5 202.269C649.866 204.522 649.662 206.6 650.02 208.288C650.337 209.789 651.12 211.147 652.956 212.245C652.992 212.257 653.162 212.32 653.532 212.406C654.06 212.527 654.802 212.651 655.786 212.765C657.75 212.992 660.42 213.151 663.772 213.24C670.461 213.417 679.566 213.305 690.557 212.981C712.525 212.332 741.771 210.841 773.766 209.166C776.824 209.006 779.908 208.844 783.013 208.681C844.776 205.439 914.895 201.758 961.541 202.236L963.464 202.255L1008.45 259.735H1073.08L1157.66 218.73L1252 338.852V579.503L1198.53 628.205L1196.38 627.574C1176.47 621.749 1142.87 619.676 1113.25 619.522C1098.52 619.445 1084.92 619.842 1074.72 620.457C1069.61 620.764 1065.4 621.124 1062.34 621.499C1060.8 621.687 1059.61 621.873 1058.78 622.045C1058.37 622.127 1058.1 622.197 1057.93 622.247C987.38 667.393 940.846 674.273 907.043 664.774C879.913 657.15 861.529 638.937 846.407 623.956C843.268 620.846 840.269 617.876 837.362 615.168C798.061 613.487 742.367 613.511 696.296 615.482C672.961 616.48 652.197 617.974 637.316 619.981C629.844 620.988 624.034 622.103 620.166 623.29C618.351 623.847 617.177 624.357 616.504 624.759C616.555 632.125 617.15 637.475 617.72 641.434C617.87 642.476 618.019 643.428 618.159 644.311L618.216 644.669C618.334 645.411 618.446 646.119 618.541 646.769C618.753 648.217 618.935 649.721 618.856 651.096C618.771 652.582 618.369 654.211 617.171 655.649C616.051 656.994 614.571 657.758 613.208 658.278C611.133 659.069 608.066 659.718 604.14 660.549C603.252 660.737 602.319 660.935 601.344 661.145C577.171 666.364 560.309 668.057 547.284 667.556C534.155 667.052 525.078 664.323 516.534 660.957C512.453 659.35 509.205 657.226 506.763 654.253C504.33 651.292 502.939 647.782 502.084 643.807C501.239 639.879 500.877 635.287 500.643 630.032C500.527 627.433 500.436 624.479 500.339 621.283C500.28 619.347 500.218 617.323 500.146 615.235H339.495L183.94 406.975L354.5 275.27V235.648L59.5 229.148V3.73535ZM616.022 625.101C616.019 625.101 616.035 625.084 616.077 625.049C616.046 625.083 616.025 625.1 616.022 625.101ZM1057.81 622.29C1057.8 622.29 1057.81 622.287 1057.83 622.281C1057.82 622.286 1057.81 622.29 1057.81 622.29Z" fill="#FF0000"/>
</g>
<defs>
<clipPath id="clip0_179_26">
<rect width="1280" height="720" fill="white" transform="translate(0 -0.764648)"/>
</clipPath>
</defs>
</svg>
