<svg width="1280" height="720" viewBox="0 0 1280 720" fill="none" xmlns="http://www.w3.org/2000/svg">
<g clip-path="url(#clip0_51_1779)">
<path fill-rule="evenodd" clip-rule="evenodd" d="M789.715 56.884L815.745 -6.62744L834.251 0.957069L804.195 74.292L695.533 96.9798L519.513 83.4399H461.686L418.209 105.179L382.177 142.337L262.816 196.387L239.885 215.79L246.017 234.186L310.18 247.426L586.676 255.262L823.562 277.017L802.942 307.948L720.492 323.482H299.019L248.661 381.897L253.555 441.598L297.711 473.979H474.06L772.553 483.059L801.362 506.106L773.398 530.341L665.502 550.064H501.501L406.358 585.342L386.405 614.797L393.047 858.352L373.054 858.897L366.237 608.908L393.394 568.818L497.912 530.064H663.689L764.428 511.649L770.115 506.721L765.273 502.847L473.755 493.979H291.163L234.367 452.329L228.044 375.183L289.855 303.482H718.625L775.782 292.713L585.477 275.236L307.858 267.369L230.688 251.445L216.629 209.269L252.026 179.318L370.464 125.686L406.22 88.8122L456.965 63.4399H520.281L694.23 76.8205L789.715 56.884ZM913.545 43.2941L904.918 -0.920088L924.548 -4.75028L933.868 43.0142L924.406 99.7852L902.274 152.655L864.154 170.445L798.081 185.514H728.77L646.887 170.932H615.109L604.099 178.884L897.857 195.976L958.321 236.696L973.169 298.564L965.653 342.409L929.178 387.689L888.742 395.27H781.878L774.777 405.103L781.524 413.408H898.05L948.441 453.721L959.696 506.245L948.743 567.098L900.02 620.693L820.78 643.164H641.932L522.825 637.701L478.299 668.675V804.783H458.299V658.225L516.969 617.411L642.391 623.164H817.998L889.065 603.011L930.078 557.898L939.314 506.581L930.379 464.884L891.035 433.408L775.782 426.34L749.589 405.819L771.652 375.27H886.883L918.235 369.392L946.818 333.909L952.762 299.236L940.69 248.935L891.228 215.624L570.94 196.989L583.68 168.96L608.642 150.932H648.654L730.537 165.514H795.829L857.629 151.419L886.811 137.801L905.06 94.2055L913.545 43.2941Z" fill="black"/>
</g>
<defs>
<clipPath id="clip0_51_1779">
<rect width="1280" height="720" fill="white"/>
</clipPath>
</defs>
</svg>
